# AST/ASF file generated using VICON BodyLanguage
# -----------------------------------------------
:version 1.10
:name VICON
:units
  mass 1.0
  length 0.45
  angle deg
:documentation
   .ast/.asf automatically generated from VICON data using
   VICON BodyBuilder and BodyLanguage model FoxedUp or BRILLIANT.MOD
:root
   order TX TY TZ RX RY RZ
   axis XYZ
   position 0 0 0  
   orientation 0 0 0 
:bonedata
  begin
     id 1 
     name lhipjoint
     direction 0.660183 -0.676772 0.325788 
     length 2.75133 
     axis 0 0 0  XYZ
  end
  begin
     id 2 
     name lfemur
     direction 0.34202 -0.939693 0  
     length 7.70317  
     axis 0 0 20  XYZ
    dof rx ry rz
    limits (-160.0 20.0)
           (-70.0 70.0)
           (-60.0 70.0)
  end
  begin
     id 3 
     name ltibia
     direction 0.342105 -0.939662 0   
     length 7.18701   
     axis 0 0 20   XYZ
    dof rx
    limits (-10.0 170.0)
  end
  begin
     id 4 
     name lfoot
     direction 0.14163 -0.389126 0.910232   
     length 2.41719   
     axis -90 7.62852e-016 20   XYZ
    dof rx rz
    limits (-45.0 90.0)
           (-70.0 20.0)
  end
  begin
     id 5 
     name ltoes
     direction 1.53533e-011 -4.21926e-011 1   
     length 1.18611   
     axis -90 7.62852e-016 20   XYZ
    dof rx
    limits (-90.0 20.0)
  end
  begin
     id 6 
     name rhipjoint
     direction -0.6658 -0.67229 0.323631   
     length 2.76968  
     axis 0 0 0  XYZ 
  end
  begin
     id 7 
     name rfemur
     direction -0.34202 -0.939693 0   
     length 7.92547   
     axis 0 0 -20   XYZ
    dof rx ry rz
    limits (-160.0 20.0)
           (-70.0 70.0)
           (-70.0 60.0)
  end
  begin
     id 8 
     name rtibia
     direction -0.342022 -0.939692 0   
     length 7.22641   
     axis 0 0 -20   XYZ
    dof rx
    limits (-10.0 170.0)
 end
 begin
     id 9 
     name rfoot
     direction -0.105675 -0.29034 0.951071   
     length 2.48149  
     axis -90 -7.62852e-016 -20   XYZ
    dof rx rz
    limits (-45.0 90.0)
           (-20.0 70.0)
  end
  begin
     id 10 
     name rtoes
     direction -1.5349e-011 -4.21859e-011 1   
     length 1.23343   
     axis -90 -7.62852e-016 -20   XYZ
    dof rx
    limits (-90.0 20.0)
  end
  begin
     id 11 
     name lowerback
     direction 0.0104173 0.993624 -0.112266   
     length 2.00527   
     axis 0 0 0   XYZ
    dof rx ry rz
    limits (-20.0 45.0)
           (-30.0 30.0)
           (-30.0 30.0)
  end
  begin
     id 12 
     name upperback
     direction 0.00733149 0.999856 -0.0152913   
     length 2.01385   
     axis 0 0 0   XYZ
    dof rx ry rz
    limits (-20.0 45.0)
           (-30.0 30.0)
           (-30.0 30.0)
  end
  begin
     id 13 
     name thorax
     direction 0.0026304 0.999318 0.036841   
     length 2.03734   
     axis 0 0 0   XYZ
    dof rx ry rz
    limits (-20.0 45.0)
           (-30.0 30.0)
           (-30.0 30.0)
  end
  begin
     id 14 
     name lowerneck
     direction 0.0293154 0.998757 0.0403082   
     length 1.65303   
     axis 0 0 0   XYZ
    dof rx ry rz
    limits (-20.0 45.0)
           (-30.0 30.0)
           (-30.0 30.0)
  end
  begin
     id 15 
     name upperneck
     direction -0.0376619 0.998184 -0.0470083   
     length 1.60926   
     axis 0 0 0   XYZ
    dof rx ry rz
    limits (-20.0 45.0)
           (-30.0 30.0)
           (-30.0 30.0)
  end
  begin
     id 16
     name head
     direction -0.0170133 0.999635 -0.0209778  
     length 1.73625  
     axis 0 0 0   XYZ
    dof rx ry rz
    limits (-20.0 45.0)
           (-30.0 30.0)
           (-30.0 30.0)
  end
  begin
     id 17 
     name lclavicle
     direction 0.919857 0.39181 -0.0186333  
     length 3.75313  
     axis 0 0 0   XYZ
    dof ry rz
    limits (-20.0 10.0)
           (0.0 20.0)
  end
  begin
     id 18 
     name lhumerus
     direction 1 -4.48988e-011 1.44029e-027   
     length 5.49313   
     axis 180 -30 -90   XYZ
    dof rx ry rz
    limits (-60.0 90.0)
           (-90.0 90.0)
           (-90.0 90.0)
  end
  begin
     id 19
     name lradius
     direction 1 -4.48924e-011 7.46281e-027   
     length 3.29037   
     axis 180 -30 -90   XYZ
    dof rx
    limits (-10.0 170.0)
  end
  begin
     id 20
     name lwrist
     direction 1 -4.48955e-011 2.19879e-026   
     length 1.64519   
     axis -1.34358e-014 90 90   XYZ
    dof ry
    limits (-180.0 0.0)
 end
  begin
     id 21 
     name lhand
     direction 1 -4.48978e-011 4.39747e-026   
     length 0.729656   
     axis -2.80598e-014 90 90   XYZ
    dof rx rz
    limits (-90.0 90.0)
           (-45.0 45.0)
  end
  begin
     id 22 
     name lfingers
     direction 1 -4.49071e-011 8.79411e-026   
     length 0.588268   
     axis -5.61193e-014 90 90   XYZ
    dof rx
    limits (0.0 90.0)
  end
  begin
     id 23
     name lthumb
     direction 0.707107 -6.34817e-011 0.707107   
     length 0.844638   
     axis -90 45 -9.86923e-015   XYZ
    dof rx rz
    limits (-45.0 45.0)
           (-45.0 45.0)
  end
  begin
     id 24 
     name rclavicle
     direction -0.919898 0.388279 0.0550233   
     length 3.7171  
     axis 0 0 0   XYZ 
    dof ry rz
    limits (-10.0 20.0)
           (-20.0 0.0)
  end
  begin
     id 25 
     name rhumerus
     direction -1 -4.48968e-011 9.98372e-028  
     length 5.23684   
     axis 180 30 90   XYZ
    dof rx ry rz
    limits (-90.0 60.0)
           (-90.0 90.0)
           (-90.0 90.0)
  end
  begin
     id 26 
     name rradius
     direction -1 -4.48956e-011 1.01023e-026   
     length 3.38251   
     axis 180 30 90   XYZ
    dof rx
    limits (-10.0 170.0)
  end
  begin
     id 27 
     name rwrist
     direction -1 -4.4892e-011 2.19886e-026   
     length 1.69126   
     axis -1.34358e-014 -90 -90   XYZ
    dof ry
    limits (-180.0 0.0)
  end
  begin
     id 28
     name rhand
     direction -1 -4.49024e-011 4.39727e-026   
     length 0.691454   
     axis -2.80598e-014 -90 -90   XYZ
    dof rx rz
    limits (-90.0 90.0)
           (-45.0 45.0)
  end
  begin
     id 29
     name rfingers
     direction -1 -4.49097e-011 8.79388e-026   
     length 0.557468   
     axis -5.61193e-014 -90 -90   XYZ
    dof rx
    limits (0.0 90.0)
  end
  begin
     id 30
     name rthumb
     direction -0.707107 -6.34938e-011 0.707107   
     length 0.800416   
     axis -90 -45 9.86923e-015   XYZ
    dof rx rz
    limits (-45.0 45.0)
           (-45.0 45.0)
  end
:hierarchy
  begin
    root lhipjoint rhipjoint lowerback
    lhipjoint lfemur
    lfemur ltibia
    ltibia lfoot
    lfoot ltoes
    rhipjoint rfemur
    rfemur rtibia
    rtibia rfoot
    rfoot rtoes
    lowerback upperback
    upperback thorax
    thorax lowerneck lclavicle rclavicle
    lowerneck upperneck
    upperneck head
    lclavicle lhumerus
    lhumerus lradius
    lradius lwrist
    lwrist lhand lthumb
    lhand lfingers
    rclavicle rhumerus
    rhumerus rradius
    rradius rwrist
    rwrist rhand rthumb
    rhand rfingers
  end

#!OML:ASF H:\BabyWalks\Project 1\Capture day 1\Session 1\baby.ASF
:FULLY-SPECIFIED
:DEGREES
178
root -24.8283 17.4585 -1.00613 15.1987 64.4635 8.41329
lowerback 19.5628 -3.88777 3.46227
upperback 4.24096 -3.83257 4.00019
thorax -6.27719 -1.78632 3.26946
lowerneck 0.424754 -2.70816 1.63453
upperneck -16.1332 -4.36301 -6.61279
head -5.08436 -1.76216 -2.13602
rclavicle -2.46493e-014 2.70347e-014
rhumerus -48.9689 10.9077 -83.0765
rradius 46.796
rwrist -6.33698
rhand -11.9536 -17.446
rfingers 7.12502
rthumb 14.1017 -46.9475
lclavicle -2.46493e-014 2.70347e-014
lhumerus -48.6565 -10.3018 87.1694
lradius 57.1354
lwrist 7.39985
lhand -2.86484 12.1997
lfingers 7.12502
lthumb 22.8437 40.8669
rfemur -14.1628 33.1858 19.1225
rtibia 37.2691
rfoot -24.5762 5.79842
rtoes 6.74946
lfemur -31.4993 3.77092 -17.1199
ltibia 54.4728
lfoot -20.5045 -18.3556
ltoes -11.5381
179
root -24.7313 17.485 -0.981919 14.9237 63.9721 8.07065
lowerback 19.5611 -3.78867 3.4501
upperback 4.25808 -3.71082 3.97772
thorax -6.26185 -1.7283 3.22096
lowerneck 0.436437 -2.68026 1.63368
upperneck -16.2393 -4.32599 -6.58443
head -5.11688 -1.7426 -2.12895
rclavicle 2.38542e-014 -1.27222e-014
rhumerus -48.912 10.8047 -83.0073
rradius 46.8624
rwrist -6.39191
rhand -11.9992 -17.4497
rfingers 7.12502
rthumb 14.0578 -46.9543
lclavicle 2.38542e-014 -1.27222e-014
lhumerus -48.943 -10.4562 87.2096
lradius 56.7716
lwrist 7.39874
lhand -2.51905 12.285
lfingers 7.12502
lthumb 23.1755 40.9108
rfemur -13.4236 33.3679 19.2714
rtibia 36.3338
rfoot -24.2711 5.99423
rtoes 7.01524
lfemur -31.9505 3.1647 -16.9813
ltibia 52.8006
lfoot -20.53 -18.0055
ltoes -11.5208
180
root -24.6335 17.5101 -0.956764 14.6435 63.4903 7.72678
lowerback 19.5642 -3.69348 3.43225
upperback 4.27425 -3.59492 3.95524
thorax -6.24943 -1.67301 3.17751
lowerneck 0.452957 -2.6505 1.62811
upperneck -16.3551 -4.28585 -6.54758
head -5.15288 -1.72141 -2.11857
rclavicle 7.39479e-014 -1.11319e-014
rhumerus -48.8563 10.7123 -82.9453
rradius 46.9277
rwrist -6.45248
rhand -12.0341 -17.4341
rfingers 7.12502
rthumb 14.0241 -46.941
lclavicle 7.39479e-014 -1.11319e-014
lhumerus -49.2341 -10.6388 87.2628
lradius 56.4158
lwrist 7.41039
lhand -2.13256 12.3944
lfingers 7.12502
lthumb 23.5462 40.9731
rfemur -12.6636 33.5411 19.4342
rtibia 35.3833
rfoot -23.9694 6.1948
rtoes 7.31211
lfemur -32.3603 2.52402 -16.7974
ltibia 51.0835
lfoot -20.4973 -17.6708
ltoes -11.655
181
root -24.5347 17.5337 -0.930671 14.3537 63.0181 7.37096
lowerback 19.5695 -3.60224 3.41241
upperback 4.28732 -3.48411 3.93522
thorax -6.24114 -1.62013 3.13945
lowerneck 0.467332 -2.61826 1.61609
upperneck -16.4754 -4.24143 -6.50196
head -5.18952 -1.69819 -2.10464
rclavicle 6.36111e-015 3.18055e-014
rhumerus -48.8035 10.6334 -82.8896
rradius 46.9919
rwrist -6.51105
rhand -12.0519 -17.4062
rfingers 7.12502
rthumb 14.007 -46.9143
lclavicle 6.36111e-015 3.18055e-014
lhumerus -49.5323 -10.8402 87.3278
lradius 56.0782
lwrist 7.43226
lhand -1.70721 12.5213
lfingers 7.12502
lthumb 23.9542 41.047
rfemur -11.8953 33.7056 19.6081
rtibia 34.4226
rfoot -23.6888 6.41598
rtoes 7.69724
lfemur -32.7404 1.85072 -16.5634
ltibia 49.3365
lfoot -20.4225 -17.3515
ltoes -11.8277
182
root -24.4354 17.5554 -0.903414 14.0561 62.5633 7.00361
lowerback 19.5755 -3.5164 3.38981
upperback 4.29783 -3.38042 3.91892
thorax -6.2353 -1.57063 3.10892
lowerneck 0.476841 -2.58395 1.5977
upperneck -16.6001 -4.19315 -6.44738
head -5.22627 -1.67323 -2.08714
rclavicle -2.62396e-014 1.11319e-014
rhumerus -48.7531 10.5645 -82.8419
rradius 47.0559
rwrist -6.5651
rhand -12.0564 -17.3733
rfingers 7.12502
rthumb 14.0027 -46.8817
lclavicle -2.62396e-014 1.11319e-014
lhumerus -49.8311 -11.0572 87.4001
lradius 55.7565
lwrist 7.45845
lhand -1.22311 12.6678
lfingers 7.12502
lthumb 24.4183 41.1317
rfemur -11.1195 33.8544 19.7945
rtibia 33.4508
rfoot -23.4151 6.65965
rtoes 8.12052
lfemur -33.0971 1.13977 -16.2762
ltibia 47.5733
lfoot -20.3146 -17.0618
ltoes -11.9518
183
root -24.3354 17.5752 -0.875165 13.7491 62.1278 6.62039
lowerback 19.5823 -3.43768 3.36652
upperback 4.30256 -3.28533 3.90945
thorax -6.23547 -1.52525 3.08861
lowerneck 0.4874 -2.5475 1.5675
upperneck -16.731 -4.14138 -6.3838
head -5.2647 -1.64622 -2.06506
rclavicle 3.89618e-014 -6.04305e-014
rhumerus -48.7139 10.5163 -82.8011
rradius 47.123
rwrist -6.61572
rhand -12.0472 -17.3279
rfingers 7.12502
rthumb 14.0116 -46.8357
lclavicle 3.89618e-014 -6.04305e-014
lhumerus -50.1376 -11.2713 87.4786
lradius 55.4598
lwrist 7.47611
lhand -0.684461 12.8189
lfingers 7.12502
lthumb 24.9346 41.2122
rfemur -10.3424 33.9792 19.9927
rtibia 32.472
rfoot -23.1414 6.93148
rtoes 8.56704
lfemur -33.4412 0.397535 -15.9381
ltibia 45.8085
lfoot -20.1816 -16.8144
ltoes -12.1589
184
root -24.2348 17.5927 -0.845683 13.431 61.7125 6.22238
lowerback 19.5874 -3.36572 3.34415
upperback 4.30473 -3.1986 3.903
thorax -6.23721 -1.48391 3.07314
lowerneck 0.493964 -2.50903 1.53696
upperneck -16.8626 -4.08593 -6.31533
head -5.30247 -1.61778 -2.04163
rclavicle 4.21423e-014 3.97569e-014
rhumerus -48.6897 10.487 -82.7759
rradius 47.201
rwrist -6.66719
rhand -12.0369 -17.2915
rfingers 7.12502
rthumb 14.0214 -46.7986
lclavicle 4.21423e-014 3.97569e-014
lhumerus -50.4436 -11.4889 87.5557
lradius 55.1818
lwrist 7.48367
lhand -0.0975844 12.9682
lfingers 7.12502
lthumb 25.4969 41.2824
rfemur -9.56348 34.0801 20.2046
rtibia 31.4924
rfoot -22.8637 7.24306
rtoes 9.07687
lfemur -33.7699 -0.373014 -15.5497
ltibia 44.0572
lfoot -20.0448 -16.6121
ltoes -12.3519
